<svg xmlns="http://www.w3.org/2000/svg" width="25" height="25" viewBox="0 0 25 25">
  <g id="Group_939" data-name="Group 939" transform="translate(-2258 -350)">
    <circle id="Ellipse_296" data-name="Ellipse 296" cx="12.5" cy="12.5" r="12.5" transform="translate(2258 350)" fill="#fff"/>
    <g id="Group_935" data-name="Group 935" transform="translate(2655.425 17.998)">
      <path id="Path_596" data-name="Path 596" d="M-393.425,344.765v-.97c.013-.116.027-.233.04-.349a8.178,8.178,0,0,1,2.079-4.685,8.119,8.119,0,0,1,4.733-2.63c.311-.055.627-.086.941-.129h.97c.277.035.556.06.831.106a8.059,8.059,0,0,1,4.475,2.272,8.084,8.084,0,0,1,2.44,6.733,7.9,7.9,0,0,1-2.021,4.626,8.1,8.1,0,0,1-5.863,2.808,7.87,7.87,0,0,1-4.565-1.154A8.156,8.156,0,0,1-393.3,345.7C-393.354,345.394-393.383,345.078-393.425,344.765Zm8.283-7.256a6.788,6.788,0,0,0-6.776,6.758,6.79,6.79,0,0,0,6.766,6.784,6.788,6.788,0,0,0,6.776-6.758A6.79,6.79,0,0,0-385.142,337.509Z" fill="#ffeb2a"/>
      <path id="Path_597" data-name="Path 597" d="M-299.364,426.754c0-.759-.005-1.518,0-2.278a.691.691,0,0,1,.46-.662.714.714,0,0,1,.8.143.75.75,0,0,1,.241.594c0,.582,0,1.163,0,1.745,0,.894,0,1.788,0,2.682a.743.743,0,0,1-.722.79.739.739,0,0,1-.775-.768c-.006-.748,0-1.5,0-2.245Z" transform="translate(-86.531 -80.728)" fill="#ffeb2a"/>
      <path id="Path_598" data-name="Path 598" d="M-301.491,379.948a1,1,0,0,1,1,1.012,1.011,1.011,0,0,1-1.007.989,1.01,1.01,0,0,1-1-1.016A1,1,0,0,1-301.491,379.948Z" transform="translate(-83.651 -40.429)" fill="#ffeb2a"/>
    </g>
  </g>
</svg>
