<svg xmlns="http://www.w3.org/2000/svg" width="25.818" height="22.347" viewBox="0 0 25.818 22.347">
  <g id="Group_487" data-name="Group 487" transform="translate(0 0)">
    <path id="Path_21" data-name="Path 21" d="M-22.643,179.264a2.373,2.373,0,0,0-1.682.7l-6.878,6.878a3.405,3.405,0,0,0-.994,2.4v6.217a2.219,2.219,0,0,0,2.216,2.214h1.387a1.423,1.423,0,0,0,1.422-1.422v-5.134a3.023,3.023,0,0,1,3.019-3.022h3.014a3.026,3.026,0,0,1,3.024,3.022v5.134a1.423,1.423,0,0,0,1.422,1.422h1.383a2.216,2.216,0,0,0,2.216-2.214v-6.221a3.392,3.392,0,0,0-1-2.4l-6.878-6.876A2.37,2.37,0,0,0-22.643,179.264Z" transform="translate(35.552 -175.325)" fill="#828181"/>
    <path id="Path_22" data-name="Path 22" d="M-8.633,187.411l-8.821-8.821a5.231,5.231,0,0,0-3.724-1.545,5.239,5.239,0,0,0-3.727,1.545l-8.817,8.821a1.252,1.252,0,0,0,0,1.767l.032.034a1.281,1.281,0,0,0,1.769,0l.108-.108.54-.542.8-.8,6.853-6.848a3.317,3.317,0,0,1,1.035-.714l0,0,0,0,0-.005,0,0,0,0h0a3.794,3.794,0,0,1,1.025-.261,3.08,3.08,0,0,1,.364-.021,3.08,3.08,0,0,1,.364.021,3.31,3.31,0,0,1,1.046.282,3.313,3.313,0,0,1,1.032.71l6.853,6.848.8.8.54.542.076.075a1.327,1.327,0,0,0,1.836,0,1.259,1.259,0,0,0,.364-.883A1.242,1.242,0,0,0-8.633,187.411Z" transform="translate(34.086 -177.046)" fill="#828181"/>
    <path id="Path_23" data-name="Path 23" d="M-23.873,184.95h-2.948a1.9,1.9,0,0,0-1.895,1.9v5.02a1.392,1.392,0,0,0,1.392,1.392h3.957a1.392,1.392,0,0,0,1.392-1.392v-5.02A1.9,1.9,0,0,0-23.873,184.95Z" transform="translate(38.253 -170.914)" fill="#828181"/>
  </g>
</svg>
