<svg xmlns="http://www.w3.org/2000/svg" width="23.39" height="17.796" viewBox="0 0 23.39 17.796">
  <g id="Group_471" data-name="Group 471" transform="translate(-1 -0.587)">
    <path id="Path_385" data-name="Path 385" d="M121.755,132.618l-1.017-9.153H99.382l-1.017,9.153c0,.314.4.592,1.017.777v7.865H112.6v-7.642c.167.009.335.016.508.016,1.685,0,3.05-.456,3.05-1.017,0,.463.862.852,2.034.973v7.669h2.544V133.4C121.352,133.21,121.755,132.932,121.755,132.618Zm-10.68,6.609H100.907v-5.6c.085,0,.168.01.253.01,1.546,0,2.8-.456,2.8-1.017,0,.56,1.366,1.017,3.052,1.017s3.049-.456,3.049-1.017c0,.3.4.569,1.017.757Z" transform="translate(-97.365 -122.878)" fill="#828181"/>
  </g>
</svg>
