<svg xmlns="http://www.w3.org/2000/svg" width="21.8" height="20.568" viewBox="0 0 21.8 20.568">
  <g id="Group_483" data-name="Group 483" transform="translate(0 3)">
    <path id="Path_26" data-name="Path 26" d="M609.164,240.64a.932.932,0,1,0-.639,1.751,2.754,2.754,0,0,1,1.818,2.581v9.3a2.755,2.755,0,0,1-2.759,2.744H595.048a2.755,2.755,0,0,1-2.759-2.744v-9.3a2.754,2.754,0,0,1,1.818-2.581.932.932,0,1,0-.639-1.751,4.623,4.623,0,0,0-3.052,4.332v9.3a4.625,4.625,0,0,0,4.632,4.607h12.535a4.625,4.625,0,0,0,4.632-4.607v-9.3A4.623,4.623,0,0,0,609.164,240.64Z" transform="translate(-590.416 -241.314)" fill="#828181"/>
    <path id="Path_27" data-name="Path 27" d="M627.193,243.326a.98.98,0,0,0,1.007-.053l3.275-2.208,3.275,2.208a.979.979,0,0,0,1.527-.812V229.088a.98.98,0,0,0-.98-.979h-7.645a.979.979,0,0,0-.979.979v13.373A.98.98,0,0,0,627.193,243.326Z" transform="translate(-620.576 -231.109)" fill="#828181"/>
  </g>
</svg>
