<svg xmlns="http://www.w3.org/2000/svg" width="25" height="25" viewBox="0 0 25 25">
  <g id="Group_937" data-name="Group 937" transform="translate(-2258 -288)">
    <circle id="Ellipse_298" data-name="Ellipse 298" cx="12.5" cy="12.5" r="12.5" transform="translate(2258 288)" fill="#fff"/>
    <g id="Group_932" data-name="Group 932" transform="translate(2525.873 358.107)">
      <path id="Path_590" data-name="Path 590" d="M-256.344-60.854q0,.908,0,1.816a.408.408,0,0,1-.454.458q-1.785,0-3.569,0a1.341,1.341,0,0,1-1.389-1.39q0-1.315,0-2.63a1.341,1.341,0,0,1,1.387-1.391q1.321,0,2.642,0a1.34,1.34,0,0,1,1.382,1.384C-256.343-62.023-256.344-61.439-256.344-60.854Z" transform="translate(-0.002 0)" fill="#ffeb2a"/>
      <path id="Path_591" data-name="Path 591" d="M-186.608-60.852q0-.87,0-1.741a1.342,1.342,0,0,1,1.394-1.4q1.315,0,2.63,0A1.34,1.34,0,0,1-181.2-62.6q0,1.315,0,2.63a1.341,1.341,0,0,1-1.388,1.39q-1.784,0-3.569,0a.409.409,0,0,1-.454-.458Q-186.609-59.944-186.608-60.852Z" transform="translate(-68.535 -0.002)" fill="#ffeb2a"/>
      <path id="Path_592" data-name="Path 592" d="M-186.61,13.431q0-.908,0-1.816a.409.409,0,0,1,.454-.457q1.785,0,3.569,0a1.34,1.34,0,0,1,1.388,1.39q0,1.315,0,2.63a1.341,1.341,0,0,1-1.388,1.391q-1.321,0-2.642,0a1.341,1.341,0,0,1-1.381-1.385C-186.611,14.6-186.61,14.015-186.61,13.431Z" transform="translate(-68.533 -68.535)" fill="#ffeb2a"/>
      <path id="Path_593" data-name="Path 593" d="M-258.62,11.157h1.816a.409.409,0,0,1,.458.454q0,1.784,0,3.569a1.34,1.34,0,0,1-1.39,1.388q-1.315,0-2.63,0a1.342,1.342,0,0,1-1.391-1.388q0-1.321,0-2.642a1.34,1.34,0,0,1,1.385-1.381C-259.788,11.156-259.2,11.157-258.62,11.157Z" transform="translate(0 -68.534)" fill="#ffeb2a"/>
    </g>
  </g>
</svg>
