<svg xmlns="http://www.w3.org/2000/svg" width="38.6" height="35.244" viewBox="0 0 38.6 35.244">
  <path id="Path_419" data-name="Path 419" d="M162.671,113.159a2.713,2.713,0,1,1,2.623-2.711,2.706,2.706,0,0,1-2.623,2.711m-12.929,0a2.713,2.713,0,1,1,2.623-2.711,2.706,2.706,0,0,1-2.623,2.711m19.186,11A15.735,15.735,0,0,0,175.6,111.62c0-9.2-8.61-16.62-19.3-16.62S137,102.42,137,111.62s8.61,16.62,19.3,16.62a22.047,22.047,0,0,0,6.314-.89,1.356,1.356,0,0,1,.574-.074,2.278,2.278,0,0,1,1,.3l4.233,2.523c.144.074.215.148.359.148a.633.633,0,0,0,.457-.195.676.676,0,0,0,.188-.473c0-.149-.072-.3-.072-.52,0-.074-.574-2.077-.861-3.339a.97.97,0,0,1-.072-.445,1.06,1.06,0,0,1,.5-1.113" transform="translate(-137 -95)" fill="#f59100" fill-rule="evenodd"/>
</svg>
