<svg xmlns="http://www.w3.org/2000/svg" width="26" height="26" viewBox="0 0 26 26">
  <g id="Component_45_1" data-name="Component 45 – 1" transform="translate(0.5 0.5)">
    <circle id="Ellipse_117" data-name="Ellipse 117" cx="12.5" cy="12.5" r="12.5" fill="#feffff" stroke="snow" stroke-width="1"/>
    <path id="Path_419" data-name="Path 419" d="M147.419,102.37a1.1,1.1,0,1,1,1.065-1.1,1.1,1.1,0,0,1-1.065,1.1m-5.248,0a1.1,1.1,0,1,1,1.065-1.1,1.1,1.1,0,0,1-1.065,1.1m7.787,4.465a6.386,6.386,0,0,0,2.708-5.089c0-3.734-3.494-6.746-7.833-6.746S137,98.011,137,101.746s3.494,6.746,7.833,6.746a8.948,8.948,0,0,0,2.563-.361.55.55,0,0,1,.233-.03.925.925,0,0,1,.408.12l1.718,1.024c.058.03.087.06.146.06a.257.257,0,0,0,.186-.079.275.275,0,0,0,.076-.192c0-.06-.029-.12-.029-.211,0-.03-.233-.843-.349-1.355a.394.394,0,0,1-.029-.181.43.43,0,0,1,.2-.452" transform="translate(-132.1 -90)" fill="#ffeb2a" fill-rule="evenodd"/>
  </g>
</svg>
