<svg xmlns="http://www.w3.org/2000/svg" width="26" height="26" viewBox="0 0 26 26">
  <g id="Component_40_39" data-name="Component 40 – 39" transform="translate(0.5 0.5)">
    <circle id="Ellipse_117" data-name="Ellipse 117" cx="12.5" cy="12.5" r="12.5" fill="#feffff" stroke="snow" stroke-width="1"/>
    <g id="icon" transform="translate(5.5 6.5)">
      <path id="Path_26" data-name="Path 26" d="M602.069,240.617a.591.591,0,0,0-.746.331.546.546,0,0,0,.349.709,1.642,1.642,0,0,1,1.13,1.533v5.525a1.676,1.676,0,0,1-1.715,1.63H593.3a1.676,1.676,0,0,1-1.715-1.63V243.19a1.642,1.642,0,0,1,1.13-1.533.546.546,0,0,0,.349-.709.591.591,0,0,0-.746-.331,2.756,2.756,0,0,0-1.9,2.573v5.525a2.814,2.814,0,0,0,2.879,2.737h7.791a2.814,2.814,0,0,0,2.879-2.737V243.19A2.756,2.756,0,0,0,602.069,240.617Z" transform="translate(-590.416 -239.195)" fill="#ffeb2a"/>
      <path id="Path_27" data-name="Path 27" d="M627.006,237.417a.649.649,0,0,0,.643-.032l2.091-1.351,2.091,1.351a.649.649,0,0,0,.643.032.6.6,0,0,0,.332-.529v-8.18a.613.613,0,0,0-.625-.6H627.3a.613.613,0,0,0-.625.6v8.18A.6.6,0,0,0,627.006,237.417Z" transform="translate(-622.964 -228.109)" fill="#ffeb2a"/>
    </g>
  </g>
</svg>
