<svg xmlns="http://www.w3.org/2000/svg" width="26" height="26" viewBox="0 0 26 26">
  <g id="Component_40_39" data-name="Component 40 – 39" transform="translate(0.5 0.5)">
    <circle id="Ellipse_112" data-name="Ellipse 112" cx="12.5" cy="12.5" r="12.5" fill="#fff" stroke="snow" stroke-width="1"/>
    <path id="Path_21" data-name="Path 21" d="M-27.055,179.264a1.277,1.277,0,0,0-.905.375l-3.7,3.7a1.833,1.833,0,0,0-.535,1.293v3.346A1.194,1.194,0,0,0-31,189.171h.746a.766.766,0,0,0,.766-.766v-2.763a1.627,1.627,0,0,1,1.625-1.627h1.622a1.629,1.629,0,0,1,1.628,1.627v2.763a.766.766,0,0,0,.766.766h.744a1.193,1.193,0,0,0,1.193-1.192v-3.348a1.826,1.826,0,0,0-.536-1.292l-3.7-3.7A1.275,1.275,0,0,0-27.055,179.264Z" transform="translate(39.503 -170.644)" fill="#ffeb2a"/>
  </g>
</svg>
