<svg xmlns="http://www.w3.org/2000/svg" width="26" height="26" viewBox="0 0 26 26">
  <g id="Component_42_1" data-name="Component 42 – 1" transform="translate(0.5 0.5)">
    <circle id="Ellipse_115" data-name="Ellipse 115" cx="12.5" cy="12.5" r="12.5" fill="#feffff" stroke="snow" stroke-width="1"/>
    <path id="Path_346" data-name="Path 346" d="M693.335,72.087l-3.789,2.883,1.448,4.664a.631.631,0,0,1-.212.686.566.566,0,0,1-.688,0L686.3,77.437l-3.789,2.883a.564.564,0,0,1-.689,0,.629.629,0,0,1-.212-.685l1.447-4.665-3.789-2.882a.629.629,0,0,1-.213-.686.59.59,0,0,1,.557-.423H684.3l1.447-4.664a.578.578,0,0,1,1.113,0l1.447,4.664h4.684a.59.59,0,0,1,.557.423A.632.632,0,0,1,693.335,72.087Z" transform="translate(-673.531 -60.391)" fill="#ffeb2a"/>
  </g>
</svg>
