<svg xmlns="http://www.w3.org/2000/svg" width="25" height="25" viewBox="0 0 25 25">
  <g id="Group_938" data-name="Group 938" transform="translate(-2258 -316)">
    <circle id="Ellipse_297" data-name="Ellipse 297" cx="12.5" cy="12.5" r="12.5" transform="translate(2258 316)" fill="#fff"/>
    <g id="Group_934" data-name="Group 934" transform="translate(2765.472 272.241)">
      <g id="Group_933" data-name="Group 933" transform="translate(-502.472 48.759)">
        <path id="Path_594" data-name="Path 594" d="M-494.714,48.759c.3.04.6.074.89.122a7.971,7.971,0,0,1,6.393,6.136,7.966,7.966,0,0,1-4.881,9.129,7.989,7.989,0,0,1-10.071-3.95.78.78,0,0,1,.34-1.063.78.78,0,0,1,1.067.4,6.33,6.33,0,0,0,3.227,3.076,6.412,6.412,0,0,0,8.788-4.468,6.42,6.42,0,0,0-4.945-7.691,6.425,6.425,0,0,0-7,3.338c-.031.06-.06.121-.092.18a.779.779,0,0,1-1.049.349.779.779,0,0,1-.339-1.052,7.885,7.885,0,0,1,2.45-2.947,7.84,7.84,0,0,1,4.108-1.53.878.878,0,0,0,.12-.026Z" transform="translate(502.472 -48.759)" fill="#ffeb2a"/>
      </g>
      <path id="Path_595" data-name="Path 595" d="M-454.906,106.251c-.059-.064-.092-.1-.127-.137-.333-.334-.669-.665-1-1a.773.773,0,0,1-.016-1.1.772.772,0,0,1,1.1-.007c.665.654,1.331,1.308,1.977,1.981a1.484,1.484,0,0,1-.021,2.114c-.639.651-1.286,1.293-1.934,1.936a.778.778,0,0,1-1.115.021.775.775,0,0,1,.018-1.125c.327-.332.659-.66.989-.99.036-.036.069-.073.128-.136h-.192q-2.1,0-4.2,0a.777.777,0,0,1-.749-1.062.776.776,0,0,1,.76-.488q1.92,0,3.84,0Z" transform="translate(-38.742 -50.301)" fill="#ffeb2a"/>
    </g>
  </g>
</svg>
