<svg xmlns="http://www.w3.org/2000/svg" width="34.392" height="25.474" viewBox="0 0 34.392 25.474">
  <g id="Group_959" data-name="Group 959" transform="translate(0.215 0.159)">
    <g id="Group_790" data-name="Group 790" transform="translate(-0.215 -0.159)">
      <path id="Path_456" data-name="Path 456" d="M-258.868,1123.553H-226.1a.888.888,0,0,0,.814-.946v-23.582a.888.888,0,0,0-.814-.946h-32.764a.888.888,0,0,0-.814.946v23.582A.888.888,0,0,0-258.868,1123.553Zm31.949-1.892h-31.135v-21.69h31.135Z" transform="translate(259.682 -1098.079)" fill="#4d4d4d"/>
    </g>
    <path id="Path_457" data-name="Path 457" d="M-230.843,1106.151a3.07,3.07,0,0,0,2.816,3.272,3.07,3.07,0,0,0,2.817-3.272,3.07,3.07,0,0,0-2.817-3.273A3.07,3.07,0,0,0-230.843,1106.151Z" transform="translate(241.209 -1099.889)" fill="#4d4d4d"/>
    <path id="Path_458" data-name="Path 458" d="M-227.063,1125.9h-25.019s3.733-9.36,6.353-9.284,4.519,3.425,4.519,3.425,3.341-4.49,5.371-4.338S-227.063,1125.9-227.063,1125.9Z" transform="translate(256.292 -1104.724)" fill="#4d4d4d"/>
  </g>
</svg>
