<svg xmlns="http://www.w3.org/2000/svg" width="25" height="25" viewBox="0 0 25 25">
  <g id="Group_936" data-name="Group 936" transform="translate(-2258 -260)">
    <circle id="Ellipse_299" data-name="Ellipse 299" cx="12.5" cy="12.5" r="12.5" transform="translate(2258 260)" fill="#fff"/>
    <path id="Path_589" data-name="Path 589" d="M-514.07-215.492a1.425,1.425,0,0,0-1.194-1.122c-.144-.022-.294,0-.439-.019a.183.183,0,0,1-.126-.09c-.084-.189-.15-.386-.231-.576-.132-.308-.135-.306.093-.547a1.42,1.42,0,0,0,.07-1.932,10.871,10.871,0,0,0-.859-.858,1.354,1.354,0,0,0-1.19-.313,1.528,1.528,0,0,0-.879.532.15.15,0,0,1-.218.037,2.067,2.067,0,0,0-.485-.211c-.3-.069-.39-.217-.384-.53a1.347,1.347,0,0,0-1.162-1.335,8.947,8.947,0,0,0-1.273-.029,1.382,1.382,0,0,0-1.173.673,1.519,1.519,0,0,0-.213.946.152.152,0,0,1-.126.185,2.2,2.2,0,0,0-.533.213c-.241.155-.387.091-.58-.1a1.394,1.394,0,0,0-1.96-.02q-.4.371-.772.774a1.384,1.384,0,0,0-.343,1.268,1.526,1.526,0,0,0,.517.837.159.159,0,0,1,.044.23,4.678,4.678,0,0,0-.226.513c-.132.33-.129.331-.487.34a1.381,1.381,0,0,0-1.363,1.193,6.5,6.5,0,0,0-.011,1.393,1.318,1.318,0,0,0,.992,1.18,2.325,2.325,0,0,0,.614.065.162.162,0,0,1,.18.133,2.2,2.2,0,0,0,.2.505c.162.253.1.411-.1.619a1.386,1.386,0,0,0-.044,1.9,11.224,11.224,0,0,0,.849.846,1.359,1.359,0,0,0,1.189.318,1.521,1.521,0,0,0,.88-.528.16.16,0,0,1,.231-.038c.18.093.369.167.555.242.286.115.286.113.292.428a1.387,1.387,0,0,0,.742,1.255,3.334,3.334,0,0,0,.476.183h1.4a3.419,3.419,0,0,0,.553-.229,1.4,1.4,0,0,0,.667-1.283c0-.248,0-.244.232-.333a4.071,4.071,0,0,0,.558-.236.23.23,0,0,1,.341.063,1.389,1.389,0,0,0,.765.464,1.384,1.384,0,0,0,1.295-.343c.263-.244.518-.5.762-.762a1.422,1.422,0,0,0-.013-1.977c-.079-.084-.206-.161-.222-.256s.083-.208.127-.315c.073-.177.149-.354.208-.536a.146.146,0,0,1,.172-.121,1.582,1.582,0,0,0,.854-.155,1.437,1.437,0,0,0,.745-.966c.008-.033.022-.065.033-.1v-1.4A.689.689,0,0,1-514.07-215.492Zm-5.278.786a2.468,2.468,0,0,1-2.476,2.465,2.469,2.469,0,0,1-2.465-2.478,2.468,2.468,0,0,1,2.477-2.465A2.467,2.467,0,0,1-519.348-214.706Z" transform="translate(2792.607 487.495)" fill="#ffeb2a"/>
  </g>
</svg>
