<svg xmlns="http://www.w3.org/2000/svg" width="26" height="26" viewBox="0 0 26 26">
  <g id="Component_41_1" data-name="Component 41 – 1" transform="translate(0.5 0.5)">
    <circle id="Ellipse_114" data-name="Ellipse 114" cx="12.5" cy="12.5" r="12.5" fill="#feffff" stroke="snow" stroke-width="1"/>
    <path id="Path_385" data-name="Path 385" d="M113.365,129.335l-.652-5.87h-13.7l-.652,5.87c0,.2.258.379.652.5v5.044H107.5v-4.9c.107.006.215.01.326.01,1.08,0,1.956-.293,1.956-.652,0,.3.553.546,1.3.624v4.918h1.631v-5.044C113.107,129.714,113.365,129.536,113.365,129.335Zm-6.849,4.238H100V129.98c.054,0,.108.007.162.007.991,0,1.794-.293,1.794-.652,0,.359.876.652,1.957.652s1.955-.293,1.955-.652c0,.193.254.365.652.485Z" transform="translate(-92.865 -116.965)" fill="#ffeb2a"/>
  </g>
</svg>
