<svg id="Group_960" data-name="Group 960" xmlns="http://www.w3.org/2000/svg" width="17.721" height="26.784" viewBox="0 0 17.721 26.784">
  <path id="Path_453" data-name="Path 453" d="M-176.054,1137.939s.432-.473,3.891-.473,3.891.473,3.891.473c.634,0,1.153.284,1.153.63v.158c0,.347-.519.63-1.153.63h-7.781c-.634,0-1.152-.283-1.152-.63v-.158C-177.206,1138.223-176.688,1137.939-176.054,1137.939Z" transform="translate(180.877 -1112.573)" fill="#4d4d4d"/>
  <path id="Path_454" data-name="Path 454" d="M-169.492,1135.481h0a.632.632,0,0,0,.631-.63v-5.778a.632.632,0,0,0-.631-.63h0a.632.632,0,0,0-.63.63v5.778A.632.632,0,0,0-169.492,1135.481Z" transform="translate(178.206 -1109.17)" fill="#4d4d4d"/>
  <g id="Group_788" data-name="Group 788" transform="translate(0 14.748)">
    <path id="Path_455" data-name="Path 455" d="M-174.5,1126.474a11.481,11.481,0,0,0,8.4-3.691.934.934,0,0,0-.052-1.32.933.933,0,0,0-1.321.052,9.482,9.482,0,0,1-7.032,3.089,9.556,9.556,0,0,1-7.411-3.509.935.935,0,0,0-1.316-.13.934.934,0,0,0-.13,1.314A11.417,11.417,0,0,0-174.5,1126.474Z" transform="translate(183.569 -1120.754)" fill="#4d4d4d"/>
  </g>
  <rect id="Rectangle_999" data-name="Rectangle 999" width="12.346" height="17.309" rx="6.173" transform="translate(2.688)" fill="#4d4d4d"/>
</svg>
